# xmcd
#
# Track frame offsets: 
#        150
#        18708
#        42178
#        65945
#        85680
#        103622
#        123750
#        145707
#
# Disc length: 2207 seconds
#
# Revision: 6
# Processed by: cddbd v1.5.2PL0 Copyright (c) Steve Scherf et al.
# Submitted via: ExactAudioCopyFreeDBPlugin 1.0
#
DISCID=67089d08
DTITLE=Teddy Pendergrass - Teddy Pendergrass
DYEAR=1977
DGENRE=Soul
TTITLE0=You Can't Hide from Yourself
TTITLE1=Somebody Told Me
TTITLE2=Be Sure
TTITLE3=And if I Had
TTITLE4=I Don't Love You Anymore
TTITLE5=The Whole Town's Laughing at Me
TTITLE6=Easy, Easy, Got to Take it Easy
TTITLE7=The More I Get, The More I Want
EXTD=
EXTT0=
EXTT1=
EXTT2=
EXTT3=
EXTT4=
EXTT5=
EXTT6=
EXTT7=
PLAYORDER=
